<svg width="80" height="40" viewBox="0 0 80 40" fill="none" xmlns="http://www.w3.org/2000/svg">
<path d="M24.3672 3.62774C24.7592 4.36818 25.0372 5.04267 25.2013 5.6512C25.3693 6.25973 25.4893 6.88315 25.5613 7.52147C25.6933 8.73002 25.6853 9.92155 25.5373 11.0961C25.3933 12.2706 25.1452 13.428 24.7932 14.5685C24.1691 16.6026 23.2671 18.4622 22.0869 20.1474C20.9108 21.8326 19.4867 23.3666 17.8145 24.7497C16.5544 25.8008 15.1982 26.7284 13.7461 27.5327C13.586 27.6178 13.45 27.7136 13.338 27.82C13.23 27.9264 13.186 28.0732 13.206 28.2604C13.206 28.4008 13.14 28.5136 13.008 28.5987C12.92 28.654 12.834 28.6796 12.75 28.6753C12.6659 28.6711 12.6019 28.6264 12.5579 28.5413C12.5059 28.4221 12.4459 28.3519 12.3779 28.3306C12.3139 28.3136 12.2239 28.3327 12.1079 28.3881C11.8719 28.503 11.6338 28.6115 11.3938 28.7136C11.0338 28.8711 10.5677 29.02 9.99567 29.1604C9.42361 29.3009 9.00156 29.3434 8.72953 29.2881C8.47351 29.2328 8.29949 29.1157 8.20748 28.937C8.11547 28.7583 8.11747 28.5562 8.21348 28.3306C8.3815 27.9859 8.61552 27.688 8.91555 27.437C9.53162 26.8838 10.2097 26.3965 10.9498 25.9752C11.3778 25.7114 11.8179 25.4667 12.2699 25.2412C12.5499 25.1135 12.6899 24.9029 12.6899 24.6092C12.6899 24.3199 12.6979 24.0305 12.714 23.7411C12.726 23.5156 12.736 23.29 12.744 23.0645C12.768 20.5666 12.794 18.0686 12.822 15.5707C12.83 14.6217 12.83 13.6706 12.822 12.7174C12.83 11.9301 12.75 11.1492 12.5819 10.3748C12.5379 10.213 12.5219 10.0492 12.5339 9.88325C12.5579 9.74282 12.6539 9.65771 12.822 9.62792C12.982 9.59813 13.106 9.6492 13.194 9.78112C13.334 10.0535 13.43 10.3386 13.482 10.6365C13.65 11.611 13.7201 12.5897 13.6921 13.5727C13.656 16.2792 13.608 18.9899 13.548 21.7049C13.54 22.2666 13.518 22.8241 13.482 23.3773C13.466 23.6283 13.452 23.8858 13.44 24.1496C13.44 24.1667 13.44 24.1858 13.44 24.2071C13.432 24.2624 13.432 24.3177 13.44 24.3731C13.452 24.4284 13.484 24.4794 13.536 24.5262C13.604 24.5475 13.67 24.5454 13.7341 24.5199C13.8021 24.4986 13.8641 24.4731 13.9201 24.4433C13.9521 24.4348 13.9821 24.4199 14.0101 24.3986C15.4982 23.756 17.0344 23.2326 18.6186 22.8283C18.9626 22.7432 19.2386 22.5709 19.4467 22.3113C20.8308 20.7836 22.0229 18.9516 23.023 16.8154C24.0271 14.6749 24.5732 12.3323 24.6612 9.7875C24.7492 7.23849 24.2012 5.11927 23.017 3.42986C21.8369 1.74044 20.2287 0.814884 18.1925 0.653177C17.0764 0.568068 15.7683 0.729775 14.2681 1.1383C12.768 1.54682 11.2478 2.23408 9.70764 3.20006C8.16748 4.16179 6.82734 5.15119 5.68722 6.16824C4.5471 7.18104 3.54899 8.34703 2.6929 9.66622C1.83281 10.9812 1.24475 12.1578 0.92872 13.1961C0.796706 13.7195 0.774704 14.2536 0.862713 14.7983C0.886716 14.9855 0.946722 15.1515 1.04273 15.2962C1.13474 15.4409 1.27676 15.56 1.46878 15.6536C1.58479 15.709 1.63879 15.777 1.63079 15.8579C1.61879 15.9345 1.55679 16.0026 1.44477 16.0622C1.03673 16.2366 0.696696 16.16 0.424667 15.8324C0.180642 15.5175 0.0446276 15.1621 0.0166247 14.7664C-0.0353807 14.1323 0.0346266 13.5195 0.226647 12.928C0.774704 11.0641 1.6688 9.37047 2.90893 7.84701C4.07705 6.41293 5.38919 5.14268 6.84534 4.03626C8.30549 2.92559 9.92366 1.99577 11.6998 1.24681C12.7039 0.825522 13.7361 0.504236 14.7962 0.282953C15.8563 0.0616691 16.9544 -0.029823 18.0905 0.00847602C18.7066 0.0254978 19.3126 0.104224 19.9087 0.244653C20.9928 0.49998 21.9089 0.942547 22.657 1.57235C23.4051 2.19791 23.9751 2.88303 24.3672 3.62774ZM12.4679 26.9263C12.4759 26.6667 12.4799 26.405 12.4799 26.1412C12.4799 26.0476 12.4779 25.971 12.4739 25.9114C12.4699 25.8518 12.4479 25.8156 12.4079 25.8029C12.3679 25.7944 12.3299 25.8008 12.2939 25.822C11.8459 26.0433 11.4118 26.288 10.9918 26.5561C10.5757 26.8242 10.1877 27.1263 9.82765 27.4625C9.67563 27.6114 9.54762 27.7753 9.44361 27.954C9.3916 28.0476 9.3896 28.1306 9.43761 28.203C9.48561 28.2796 9.56562 28.3285 9.67763 28.3498C9.93366 28.3966 10.1757 28.3817 10.4037 28.3051C10.8718 28.1476 11.3398 27.9753 11.8079 27.788C11.8079 27.7753 11.8119 27.7689 11.8199 27.7689C11.9319 27.7221 12.0459 27.6668 12.1619 27.6029C12.1979 27.5859 12.2279 27.5668 12.2519 27.5455C12.3679 27.4817 12.4339 27.388 12.4499 27.2646C12.4619 27.154 12.4679 27.0412 12.4679 26.9263ZM15.5162 25.6369C16.2643 25.1518 16.9724 24.6369 17.6405 24.0922C17.8605 23.922 17.9985 23.7837 18.0545 23.6773C18.1145 23.5709 18.0925 23.5283 17.9885 23.5496C17.8885 23.5752 17.7465 23.6156 17.5625 23.6709C16.3383 24.0752 15.0222 24.5943 13.614 25.2284C13.498 25.2752 13.432 25.3412 13.416 25.4263C13.312 25.9965 13.274 26.3838 13.302 26.588C13.334 26.7965 13.412 26.8753 13.536 26.8242C13.66 26.7731 13.8821 26.6476 14.2021 26.4476C14.5221 26.2518 14.9602 25.9816 15.5162 25.6369Z" fill="#092540"/>
<path d="M25.9453 19.924C25.8653 19.9325 25.7773 19.8729 25.6813 19.7453C25.5853 19.6176 25.5013 19.3984 25.4293 19.0878C25.3573 18.7729 25.3313 18.3388 25.3513 17.7856C25.3513 17.7303 25.3513 17.6601 25.3513 17.575C25.3513 17.3622 25.3593 17.1133 25.3753 16.8281C25.3953 16.5388 25.4353 16.2813 25.4953 16.0558C25.5553 15.826 25.6473 15.6877 25.7713 15.6409C26.1434 15.5345 26.3454 15.6749 26.3774 16.0622C26.3774 16.1813 26.3734 16.3026 26.3654 16.426C26.3574 16.4813 26.3534 16.5409 26.3534 16.6047C26.3454 16.7835 26.3374 16.9579 26.3294 17.1282C26.3294 17.2771 26.3234 17.4218 26.3114 17.5622C26.3114 17.6558 26.3114 17.792 26.3114 17.9707C26.3234 18.2218 26.3254 18.4963 26.3174 18.7942C26.3134 19.0878 26.2834 19.3452 26.2274 19.5665C26.1714 19.7836 26.0773 19.9027 25.9453 19.924ZM26.2994 14.3196C26.2554 14.3664 26.1934 14.3962 26.1133 14.4089C26.0373 14.4217 25.9773 14.4153 25.9333 14.3898C25.8893 14.343 25.8593 14.2919 25.8433 14.2366C25.8313 14.177 25.8253 14.1068 25.8253 14.0259C25.8333 14.0047 25.8373 13.9855 25.8373 13.9685C25.8453 13.8919 25.8633 13.8174 25.8913 13.7451C25.9713 13.528 26.1334 13.4344 26.3774 13.4642C26.4654 13.4727 26.5314 13.511 26.5754 13.5791C26.6194 13.6429 26.6334 13.7153 26.6174 13.7961C26.5574 13.9961 26.4514 14.1706 26.2994 14.3196Z" fill="#092540"/>
<path d="M31.1179 16.1132C31.2139 16.1047 31.2979 16.109 31.3699 16.126C31.4459 16.1388 31.4839 16.1728 31.4839 16.2281C31.5199 16.8196 31.5059 17.5601 31.4419 18.4495C31.3819 19.3389 31.2499 20.3006 31.0459 21.3347C30.8458 22.3687 30.5598 23.4028 30.1878 24.4369C29.8197 25.471 29.3497 26.4284 28.7776 27.3093C28.2056 28.1902 27.5155 28.9179 26.7074 29.4924C25.8953 30.0668 24.9492 30.4158 23.8691 30.5392C23.049 30.6115 22.375 30.4881 21.8469 30.169C21.3188 29.8541 21.0328 29.3562 20.9888 28.6753C20.9448 27.9987 21.2468 27.154 21.8949 26.1412C22.543 25.1327 23.6311 23.9667 25.1593 22.6432C25.9713 21.9709 26.7674 21.373 27.5475 20.8495C28.3316 20.3261 28.9977 19.8899 29.5457 19.541C29.6937 19.4474 29.8297 19.3644 29.9538 19.292C30.3338 19.0665 30.5098 18.7388 30.4818 18.309C30.4818 18.2622 30.4818 18.1963 30.4818 18.1112C30.4738 17.9878 30.4698 17.8516 30.4698 17.7026C30.2418 18.0856 29.9197 18.4346 29.5037 18.7495C29.0917 19.0644 28.6676 19.2899 28.2316 19.4261C27.7955 19.558 27.4235 19.5495 27.1155 19.4006C26.8074 19.2516 26.6494 18.9048 26.6414 18.3601C26.6494 18.0792 26.7234 17.8218 26.8634 17.5877C27.1995 16.9622 27.6615 16.4707 28.2496 16.1132C28.4696 15.9856 28.7356 15.8941 29.0477 15.8387C29.3597 15.7792 29.6617 15.7834 29.9538 15.8515C30.2458 15.9153 30.4798 16.06 30.6558 16.2856C30.6998 16.2175 30.7618 16.1728 30.8418 16.1515C30.9259 16.126 31.0039 16.1132 31.0759 16.1132C31.0919 16.1132 31.1059 16.1132 31.1179 16.1132ZM29.6897 17.6197C30.0578 17.2239 30.2598 16.9196 30.2958 16.7069C30.2078 16.5366 30.0718 16.4345 29.8877 16.4005C29.7037 16.3622 29.5137 16.3643 29.3177 16.4069C29.1257 16.4452 28.9636 16.5069 28.8316 16.592C28.4716 16.8345 28.2056 17.1303 28.0336 17.4792C27.8615 17.8239 27.7975 18.1197 27.8415 18.3665C27.8855 18.609 28.0576 18.692 28.3576 18.6154C28.6576 18.5388 29.1017 18.2069 29.6897 17.6197ZM30.1938 20.4155C30.1938 20.4027 30.1978 20.3921 30.2058 20.3836C30.2138 20.3282 30.2218 20.2559 30.2298 20.1665C30.2378 20.0772 30.2358 20.007 30.2238 19.9559C30.2118 19.9048 30.1798 19.8984 30.1278 19.9367C30.0558 19.9836 29.9798 20.0346 29.8997 20.0899C29.3637 20.4559 28.6596 20.9666 27.7875 21.6219C26.9154 22.2772 26.0313 23.0156 25.1352 23.8369C24.9592 24.0071 24.7072 24.2582 24.3792 24.5901C24.0471 24.922 23.6991 25.3007 23.3351 25.7263C22.967 26.1518 22.641 26.5923 22.357 27.0476C22.0689 27.5029 21.8789 27.9306 21.7869 28.3306C21.6949 28.7349 21.7549 29.0817 21.9669 29.3711C22.2469 29.72 22.681 29.8711 23.2691 29.8243C23.8531 29.7775 24.5112 29.5434 25.2433 29.1221C25.9713 28.7008 26.6874 28.0944 27.3915 27.3029C28.0956 26.5114 28.6996 25.539 29.2037 24.3858C29.7117 23.2368 30.0418 21.9134 30.1938 20.4155Z" fill="#092540"/>
<path d="M32.9301 19.924C32.8501 19.9325 32.762 19.8729 32.666 19.7453C32.57 19.6176 32.486 19.3984 32.414 19.0878C32.342 18.7729 32.316 18.3388 32.336 17.7856C32.336 17.7303 32.336 17.6601 32.336 17.575C32.336 17.3622 32.344 17.1133 32.36 16.8281C32.38 16.5388 32.42 16.2813 32.48 16.0558C32.54 15.826 32.632 15.6877 32.756 15.6409C33.1281 15.5345 33.3301 15.6749 33.3621 16.0622C33.3621 16.1813 33.3581 16.3026 33.3501 16.426C33.3421 16.4813 33.3381 16.5409 33.3381 16.6047C33.3301 16.7835 33.3221 16.9579 33.3141 17.1282C33.3141 17.2771 33.3081 17.4218 33.2961 17.5622C33.2961 17.6558 33.2961 17.792 33.2961 17.9707C33.3081 18.2218 33.3101 18.4963 33.3021 18.7942C33.2981 19.0878 33.2681 19.3452 33.2121 19.5665C33.1561 19.7836 33.0621 19.9027 32.9301 19.924ZM33.2841 14.3196C33.2401 14.3664 33.1781 14.3962 33.0981 14.4089C33.0221 14.4217 32.9621 14.4153 32.9181 14.3898C32.8741 14.343 32.8441 14.2919 32.828 14.2366C32.816 14.177 32.81 14.1068 32.81 14.0259C32.8181 14.0047 32.8221 13.9855 32.8221 13.9685C32.8301 13.8919 32.8481 13.8174 32.8761 13.7451C32.9561 13.528 33.1181 13.4344 33.3621 13.4642C33.4501 13.4727 33.5161 13.511 33.5601 13.5791C33.6041 13.6429 33.6181 13.7153 33.6021 13.7961C33.5421 13.9961 33.4361 14.1706 33.2841 14.3196Z" fill="#092540"/>
<path d="M36.9265 13.0812C36.9785 13.0897 37.0125 13.1302 37.0285 13.2025C37.0485 13.2706 37.0485 13.3429 37.0285 13.4195C37.0125 13.4961 36.9785 13.5344 36.9265 13.5344L34.9883 13.5153V13.5727C34.9803 13.8749 34.9623 14.2366 34.9343 14.6579C34.8903 15.5473 34.8683 16.4494 34.8683 17.3643C34.8683 17.675 34.8883 18.1048 34.9283 18.6537C34.9683 19.1984 35.0503 19.6857 35.1743 20.1155C35.1823 20.1453 35.2083 20.1985 35.2523 20.2751C35.3043 20.3687 35.3543 20.4729 35.4023 20.5878C35.4503 20.707 35.4723 20.8027 35.4683 20.8751C35.4643 20.9517 35.4103 20.9751 35.3063 20.9453C34.9623 20.8261 34.7002 20.5346 34.5202 20.0708C34.3402 19.6069 34.2122 19.0665 34.1362 18.4495C34.0602 17.8282 34.0202 17.2239 34.0162 16.6366C34.0122 16.0451 34.0182 15.5664 34.0342 15.2004C34.0462 14.9494 34.0562 14.6983 34.0642 14.4472C34.0722 14.1281 34.0802 13.8132 34.0882 13.5025L32.624 13.477C32.5 13.477 32.43 13.4514 32.414 13.4004C32.394 13.3493 32.406 13.2982 32.45 13.2472C32.494 13.1919 32.552 13.1599 32.624 13.1514L34.1002 13.1259L34.1962 11.6195C34.2122 11.3769 34.2302 11.1301 34.2502 10.879C34.2502 10.7471 34.2542 10.6152 34.2622 10.4833C34.2622 10.2875 34.3062 10.1045 34.3942 9.93431C34.4982 9.78537 34.6262 9.73005 34.7783 9.76835C34.9103 9.81516 34.9843 9.91304 35.0003 10.062C35.0163 10.3045 35.0243 10.5492 35.0243 10.796C35.0243 10.9365 35.0243 11.0769 35.0243 11.2173C35.0243 11.3748 35.0243 11.5322 35.0243 11.6897L34.9883 13.1131L36.9265 13.0812Z" fill="#092540"/>
<path d="M45.0333 16.8026C45.1053 16.7005 45.1813 16.626 45.2614 16.5792C45.3414 16.5324 45.3894 16.5324 45.4054 16.5792C45.4214 16.626 45.3774 16.7388 45.2733 16.9175C45.0373 17.292 44.6893 17.6473 44.2292 17.9835C43.7732 18.3197 43.2671 18.6069 42.7111 18.8452C42.159 19.0835 41.619 19.241 41.0909 19.3176C40.5629 19.3942 40.1148 19.358 39.7468 19.2091C39.3827 19.0559 39.1567 18.7601 39.0687 18.3218C38.7607 18.8537 38.3946 19.2708 37.9706 19.5729C37.5505 19.8708 37.1505 19.9963 36.7705 19.9495C36.3384 19.8857 36.0504 19.7133 35.9064 19.4325C35.7624 19.1516 35.7144 18.8282 35.7624 18.4622C35.8104 18.0963 35.9144 17.7494 36.0744 17.4218C36.1944 17.1707 36.3644 16.9367 36.5844 16.7196C36.8045 16.5026 37.0345 16.3345 37.2745 16.2154C37.5745 16.0536 37.8746 15.9813 38.1746 15.9983C38.4786 16.0111 38.8027 16.1154 39.1467 16.3111C39.1467 16.3111 39.1507 16.3026 39.1587 16.2856C39.1587 16.2473 39.1647 16.2026 39.1767 16.1515C39.1927 16.1005 39.2227 16.0558 39.2667 16.0175C39.3267 15.9707 39.4027 15.9345 39.4947 15.909C39.5908 15.8792 39.6828 15.8728 39.7708 15.8898C39.9108 15.9196 39.9968 15.9962 40.0288 16.1196C40.0648 16.2388 40.0708 16.3707 40.0468 16.5154C40.0268 16.6601 40.0048 16.7835 39.9808 16.8856C39.9728 16.9069 39.9688 16.926 39.9688 16.943C39.8248 17.5601 39.8768 17.9941 40.1248 18.2452C40.3728 18.492 40.7309 18.6069 41.1989 18.5899C41.671 18.5686 42.171 18.4622 42.6991 18.2707C43.2271 18.0792 43.7072 17.8516 44.1392 17.5877C44.5713 17.3196 44.8693 17.0579 45.0333 16.8026ZM36.9445 19.1197C37.1285 19.2516 37.3265 19.2389 37.5385 19.0814C37.7506 18.9197 37.9566 18.6899 38.1566 18.392C38.3606 18.0899 38.5286 17.7899 38.6607 17.492C38.7927 17.1941 38.8667 16.9686 38.8827 16.8154C38.4626 16.5728 38.1026 16.5303 37.8026 16.6877C37.5025 16.8409 37.2685 17.0877 37.1005 17.4282C36.9325 17.7686 36.8345 18.1069 36.8065 18.4431C36.7825 18.775 36.8285 19.0005 36.9445 19.1197Z" fill="#092540"/>
<path d="M48.0456 3.18091C48.5297 3.249 48.9497 3.61284 49.3058 4.27244C49.6618 4.93203 49.9038 5.78312 50.0318 6.82571C50.1599 7.86829 50.1179 8.99599 49.9058 10.2088C49.6938 11.4216 49.2618 12.6152 48.6097 13.7898C47.9616 14.9643 47.0435 16.0196 45.8554 16.9558C45.8914 17.4452 45.9614 17.9282 46.0654 18.4048C46.1694 18.8814 46.3235 19.2601 46.5275 19.541C46.7115 19.7665 46.9295 19.8367 47.1816 19.7516C47.4336 19.6665 47.6856 19.4899 47.9376 19.2218C48.1937 18.9495 48.4257 18.6516 48.6337 18.3282C48.8417 18.0048 48.9937 17.7218 49.0898 17.4792C49.1698 17.3005 49.2478 17.2111 49.3238 17.2111C49.4038 17.2111 49.4258 17.3005 49.3898 17.4792C49.2498 17.909 49.0778 18.3239 48.8737 18.7239C48.6737 19.1197 48.4117 19.4772 48.0876 19.7963C47.8396 20.0474 47.5436 20.2112 47.1996 20.2878C46.6555 20.3729 46.2135 20.2197 45.8734 19.8282C45.5334 19.4325 45.2814 18.8686 45.1173 18.1367C45.0093 17.6771 44.9353 16.992 44.8953 16.0813C44.8553 15.1664 44.8553 14.1387 44.8953 12.9982C44.9353 11.8578 45.0253 10.7024 45.1653 9.53217C45.3094 8.36192 45.5034 7.28742 45.7474 6.30867C45.9954 5.32992 46.3075 4.5533 46.6835 3.97881C47.0635 3.40007 47.5176 3.1341 48.0456 3.18091ZM45.8674 16.1834C46.9235 15.1451 47.7156 14.0493 48.2437 12.8961C48.7717 11.7386 49.1058 10.6045 49.2458 9.49387C49.3858 8.3832 49.3958 7.38104 49.2758 6.4874C49.1598 5.59375 48.9757 4.8916 48.7237 4.38095C48.4757 3.8703 48.2317 3.63837 47.9916 3.68518C47.6916 3.7788 47.4276 4.10647 47.1996 4.66819C46.9715 5.22991 46.7775 5.94057 46.6175 6.80017C46.4615 7.65552 46.3295 8.57044 46.2215 9.54494C46.1174 10.5194 46.0354 11.4641 45.9754 12.3791C45.9194 13.2897 45.8834 14.0855 45.8674 14.7664C45.8514 15.443 45.8514 15.9153 45.8674 16.1834Z" fill="#092540"/>
<path d="M35.4616 27.6094C35.5976 27.7966 35.6856 27.9903 35.7257 28.1903C35.7657 28.3903 35.7797 28.6073 35.7677 28.8413C35.7597 29.0754 35.6896 29.2839 35.5576 29.4669C35.4256 29.6499 35.2056 29.7605 34.8976 29.7988C34.5895 29.8244 34.3135 29.7754 34.0695 29.652C33.8295 29.5243 33.6794 29.3414 33.6194 29.1031C33.5554 28.8648 33.6294 28.586 33.8415 28.2669C33.9815 28.0881 34.1495 27.9328 34.3455 27.8009C34.4135 27.7541 34.4835 27.703 34.5555 27.6477C34.3195 27.3753 34.0955 27.0966 33.8835 26.8115C33.6714 26.5264 33.5354 26.2711 33.4754 26.0455C33.4114 25.7859 33.4534 25.5412 33.6014 25.3115C33.7454 25.0817 33.9975 24.9476 34.3575 24.9093C34.5335 24.8923 34.6975 24.9029 34.8496 24.9412C35.0056 24.9753 35.1496 25.054 35.2816 25.1774C35.3096 25.2072 35.3296 25.2412 35.3416 25.2795C35.3536 25.3136 35.3476 25.3583 35.3236 25.4136C35.2796 25.4987 35.2136 25.5412 35.1256 25.5412C35.0616 25.5412 34.9996 25.5327 34.9396 25.5157C34.8756 25.4859 34.8176 25.4583 34.7656 25.4327C34.7295 25.4115 34.6955 25.3923 34.6635 25.3753C34.5475 25.3285 34.4575 25.3349 34.3935 25.3944C34.3335 25.454 34.3035 25.5455 34.3035 25.6689C34.3115 25.8859 34.3955 26.1179 34.5555 26.3647C34.7155 26.6115 34.8736 26.8392 35.0296 27.0477C35.0936 27.12 35.1476 27.1902 35.1916 27.2583C35.2356 27.3051 35.3256 27.4222 35.4616 27.6094ZM34.6455 29.3201C34.7616 29.3116 34.8376 29.2435 34.8736 29.1158C34.9096 28.9882 34.9216 28.8477 34.9096 28.6945C34.9016 28.5413 34.8936 28.4264 34.8856 28.3498C34.8696 28.303 34.8416 28.2732 34.8016 28.2605C34.7616 28.2477 34.7235 28.2498 34.6875 28.2669C34.5555 28.3775 34.4575 28.5179 34.3935 28.6882C34.3335 28.8584 34.3395 29.0073 34.4115 29.135C34.4355 29.1818 34.4675 29.2222 34.5075 29.2563C34.5475 29.2903 34.5935 29.3116 34.6455 29.3201Z" fill="#DE5242"/>
<path d="M36.8958 29.3648C36.8158 29.3733 36.7278 29.3137 36.6317 29.186C36.5357 29.0584 36.4517 28.8392 36.3797 28.5286C36.3077 28.2137 36.2817 27.7796 36.3017 27.2264C36.3017 27.1711 36.3017 27.1009 36.3017 27.0158C36.3017 26.803 36.3097 26.554 36.3257 26.2689C36.3457 25.9796 36.3857 25.7221 36.4457 25.4966C36.5057 25.2668 36.5977 25.1285 36.7218 25.0817C37.0938 24.9753 37.2958 25.1157 37.3278 25.5029C37.3278 25.6221 37.3238 25.7434 37.3158 25.8668C37.3078 25.9221 37.3038 25.9817 37.3038 26.0455C37.2958 26.2242 37.2878 26.3987 37.2798 26.5689C37.2798 26.7179 37.2738 26.8626 37.2618 27.003C37.2618 27.0966 37.2618 27.2328 37.2618 27.4115C37.2738 27.6626 37.2758 27.9371 37.2678 28.2349C37.2638 28.5286 37.2338 28.786 37.1778 29.0073C37.1218 29.2243 37.0278 29.3435 36.8958 29.3648ZM37.2498 23.7603C37.2058 23.8072 37.1438 23.8369 37.0638 23.8497C36.9878 23.8625 36.9278 23.8561 36.8838 23.8306C36.8398 23.7837 36.8098 23.7327 36.7938 23.6774C36.7818 23.6178 36.7758 23.5476 36.7758 23.4667C36.7838 23.4454 36.7878 23.4263 36.7878 23.4093C36.7958 23.3327 36.8138 23.2582 36.8418 23.1859C36.9218 22.9688 37.0838 22.8752 37.3278 22.905C37.4158 22.9135 37.4818 22.9518 37.5258 23.0199C37.5698 23.0837 37.5838 23.1561 37.5678 23.2369C37.5078 23.4369 37.4018 23.6114 37.2498 23.7603Z" fill="#DE5242"/>
<path d="M42.0683 25.554C42.1643 25.5455 42.2483 25.5498 42.3203 25.5668C42.3963 25.5795 42.4344 25.6136 42.4344 25.6689C42.4704 26.2604 42.4564 27.0009 42.3923 27.8903C42.3323 28.7796 42.2003 29.7414 41.9963 30.7754C41.7963 31.8095 41.5103 32.8436 41.1382 33.8777C40.7702 34.9117 40.3001 35.8692 39.7281 36.7501C39.156 37.631 38.4659 38.3587 37.6579 38.9331C36.8458 39.5076 35.8997 39.8566 34.8196 39.98C33.9995 40.0523 33.3254 39.9289 32.7973 39.6098C32.2693 39.2949 31.9833 38.797 31.9393 38.1161C31.8953 37.4395 32.1973 36.5948 32.8454 35.582C33.4934 34.5734 34.5815 33.4074 36.1097 32.084C36.9218 31.4116 37.7179 30.8137 38.4979 30.2903C39.282 29.7669 39.9481 29.3307 40.4961 28.9818C40.6442 28.8882 40.7802 28.8052 40.9042 28.7328C41.2842 28.5073 41.4602 28.1796 41.4322 27.7498C41.4322 27.703 41.4322 27.6371 41.4322 27.5519C41.4242 27.4285 41.4202 27.2924 41.4202 27.1434C41.1922 27.5264 40.8702 27.8754 40.4541 28.1903C40.0421 28.5052 39.6181 28.7307 39.182 28.8669C38.746 28.9988 38.3739 28.9903 38.0659 28.8413C37.7579 28.6924 37.5998 28.3456 37.5918 27.8009C37.5998 27.52 37.6739 27.2626 37.8139 27.0285C38.1499 26.403 38.612 25.9115 39.2 25.554C39.42 25.4264 39.6861 25.3349 39.9981 25.2795C40.3101 25.22 40.6122 25.2242 40.9042 25.2923C41.1962 25.3561 41.4302 25.5008 41.6063 25.7264C41.6503 25.6583 41.7123 25.6136 41.7923 25.5923C41.8763 25.5668 41.9543 25.554 42.0263 25.554C42.0423 25.554 42.0563 25.554 42.0683 25.554ZM40.6402 27.0604C41.0082 26.6647 41.2102 26.3604 41.2462 26.1476C41.1582 25.9774 41.0222 25.8753 40.8382 25.8413C40.6542 25.803 40.4641 25.8051 40.2681 25.8476C40.0761 25.8859 39.9141 25.9476 39.7821 26.0328C39.422 26.2753 39.156 26.5711 38.984 26.92C38.812 27.2647 38.748 27.5605 38.792 27.8073C38.836 28.0498 39.008 28.1328 39.308 28.0562C39.6081 27.9796 40.0521 27.6477 40.6402 27.0604ZM41.1442 29.8563C41.1442 29.8435 41.1482 29.8329 41.1562 29.8244C41.1642 29.769 41.1722 29.6967 41.1802 29.6073C41.1882 29.518 41.1862 29.4478 41.1742 29.3967C41.1622 29.3456 41.1302 29.3392 41.0782 29.3775C41.0062 29.4243 40.9302 29.4754 40.8502 29.5307C40.3141 29.8967 39.6101 30.4074 38.738 31.0627C37.8659 31.718 36.9818 32.4564 36.0857 33.2777C35.9097 33.4479 35.6576 33.6989 35.3296 34.0309C34.9976 34.3628 34.6495 34.7415 34.2855 35.1671C33.9175 35.5926 33.5914 36.0331 33.3074 36.4884C33.0194 36.9437 32.8293 37.3714 32.7373 37.7714C32.6453 38.1757 32.7053 38.5225 32.9174 38.8119C33.1974 39.1608 33.6314 39.3119 34.2195 39.2651C34.8036 39.2183 35.4616 38.9842 36.1937 38.5629C36.9218 38.1416 37.6379 37.5352 38.3419 36.7437C39.046 35.9522 39.6501 34.9798 40.1541 33.8266C40.6622 32.6776 40.9922 31.3542 41.1442 29.8563Z" fill="#DE5242"/>
<path d="M52.1434 26.0647C52.3194 25.9796 52.4214 25.9647 52.4494 26.02C52.4814 26.1306 52.3874 26.3306 52.1674 26.62C51.9473 26.9051 51.6493 27.1966 51.2733 27.4945C50.3652 28.1669 49.6011 28.569 48.981 28.7009C48.361 28.8328 47.8549 28.7924 47.4629 28.5796C47.0708 28.3626 46.7788 28.0669 46.5868 27.6924C46.3588 27.2711 46.2167 26.8541 46.1607 26.4413C46.0847 25.9902 45.9807 25.7349 45.8487 25.6753C45.7167 25.6157 45.5747 25.6795 45.4227 25.8668C45.2746 26.054 45.1286 26.3008 44.9846 26.6072C44.8446 26.9094 44.7286 27.2051 44.6366 27.4945C44.5446 27.7839 44.4946 28.003 44.4866 28.152C44.4586 28.2371 44.4326 28.3179 44.4086 28.3945C44.3726 28.5137 44.3325 28.6307 44.2885 28.7456C44.1725 29.0648 43.9705 29.1818 43.6825 29.0967C43.5225 29.0669 43.4305 28.9626 43.4065 28.7839C43.3945 28.6647 43.3885 28.5392 43.3885 28.4073C43.3885 28.3052 43.3845 28.1966 43.3764 28.0818C43.3604 27.3158 43.3424 26.5434 43.3224 25.7647C43.3224 25.671 43.3644 25.6072 43.4485 25.5732C43.5325 25.5349 43.6285 25.5178 43.7365 25.5221C43.8485 25.5264 43.9465 25.5455 44.0305 25.5795C44.1145 25.6093 44.1605 25.654 44.1685 25.7136C44.1885 25.8413 44.1985 25.9519 44.1985 26.0455C44.1985 26.1774 44.2065 26.2732 44.2225 26.3328C44.2385 26.3881 44.2745 26.386 44.3305 26.3264C44.3906 26.2625 44.4906 26.1328 44.6306 25.937C44.8506 25.5625 45.1286 25.2434 45.4647 24.9795C45.6127 24.8604 45.7867 24.7753 45.9867 24.7242C46.1907 24.6689 46.3868 24.6604 46.5748 24.6987C46.7748 24.754 46.9308 24.8753 47.0428 25.0625C47.1588 25.2497 47.2449 25.4646 47.3009 25.7072C47.3609 25.9455 47.4049 26.1668 47.4329 26.3711C47.4409 26.4264 47.4489 26.4732 47.4569 26.5115C47.5009 26.7838 47.5589 27.0328 47.6309 27.2583C47.7069 27.4796 47.8289 27.6541 47.9969 27.7817C48.1649 27.9094 48.411 27.9583 48.735 27.9286C49.4391 27.8732 49.9971 27.7179 50.4092 27.4626C50.8252 27.203 51.1753 26.9285 51.4593 26.6392C51.5033 26.6009 51.5413 26.5626 51.5733 26.5243C51.6373 26.4774 51.6913 26.4306 51.7353 26.3838C51.8393 26.2647 51.9753 26.1583 52.1434 26.0647Z" fill="#DE5242"/>
<path d="M60.5202 26.2434C60.5922 26.1413 60.6683 26.0668 60.7483 26.02C60.8283 25.9732 60.8763 25.9732 60.8923 26.02C60.9083 26.0668 60.8643 26.1796 60.7603 26.3583C60.5242 26.7328 60.1762 27.0881 59.7162 27.4243C59.2601 27.7605 58.7541 28.0477 58.198 28.286C57.6459 28.5243 57.1059 28.6818 56.5778 28.7584C56.0498 28.835 55.6017 28.7988 55.2337 28.6499C54.8696 28.4967 54.6436 28.2009 54.5556 27.7626C54.2476 28.2945 53.8815 28.7116 53.4575 29.0137C53.0375 29.3116 52.6374 29.4371 52.2574 29.3903C51.8253 29.3265 51.5373 29.1541 51.3933 28.8733C51.2493 28.5924 51.2013 28.269 51.2493 27.903C51.2973 27.5371 51.4013 27.1902 51.5613 26.8626C51.6813 26.6115 51.8513 26.3774 52.0714 26.1604C52.2914 25.9434 52.5214 25.7753 52.7614 25.6561C53.0615 25.4944 53.3615 25.4221 53.6615 25.4391C53.9656 25.4519 54.2896 25.5561 54.6336 25.7519C54.6336 25.7519 54.6376 25.7434 54.6456 25.7264C54.6456 25.6881 54.6516 25.6434 54.6636 25.5923C54.6796 25.5412 54.7096 25.4966 54.7536 25.4583C54.8136 25.4115 54.8897 25.3753 54.9817 25.3498C55.0777 25.32 55.1697 25.3136 55.2577 25.3306C55.3977 25.3604 55.4837 25.437 55.5157 25.5604C55.5517 25.6795 55.5577 25.8115 55.5337 25.9562C55.5137 26.1008 55.4917 26.2242 55.4677 26.3264C55.4597 26.3477 55.4557 26.3668 55.4557 26.3838C55.3117 27.0009 55.3637 27.4349 55.6117 27.686C55.8598 27.9328 56.2178 28.0477 56.6858 28.0307C57.1579 28.0094 57.6579 27.903 58.186 27.7115C58.7141 27.52 59.1941 27.2924 59.6261 27.0285C60.0582 26.7604 60.3562 26.4987 60.5202 26.2434ZM52.4314 28.5605C52.6154 28.6924 52.8134 28.6796 53.0255 28.5222C53.2375 28.3605 53.4435 28.1307 53.6435 27.8328C53.8475 27.5307 54.0156 27.2307 54.1476 26.9328C54.2796 26.6349 54.3536 26.4094 54.3696 26.2562C53.9496 26.0136 53.5895 25.971 53.2895 26.1285C52.9895 26.2817 52.7554 26.5285 52.5874 26.8689C52.4194 27.2094 52.3214 27.5477 52.2934 27.8839C52.2694 28.2158 52.3154 28.4413 52.4314 28.5605Z" fill="#DE5242"/>
<path d="M63.1785 22.522C63.2305 22.5305 63.2645 22.5709 63.2805 22.6433C63.3005 22.7114 63.3005 22.7837 63.2805 22.8603C63.2645 22.9369 63.2305 22.9752 63.1785 22.9752L61.2403 22.9561V23.0135C61.2323 23.3156 61.2143 23.6774 61.1863 24.0986C61.1423 24.988 61.1203 25.8902 61.1203 26.8051C61.1203 27.1158 61.1403 27.5456 61.1803 28.0945C61.2203 28.6392 61.3023 29.1265 61.4263 29.5563C61.4343 29.5861 61.4603 29.6392 61.5043 29.7158C61.5563 29.8095 61.6064 29.9137 61.6544 30.0286C61.7024 30.1478 61.7244 30.2435 61.7204 30.3159C61.7164 30.3925 61.6624 30.4159 61.5583 30.3861C61.2143 30.2669 60.9523 29.9754 60.7723 29.5116C60.5922 29.0477 60.4642 28.5073 60.3882 27.8903C60.3122 27.269 60.2722 26.6647 60.2682 26.0774C60.2642 25.4859 60.2702 25.0072 60.2862 24.6412C60.2982 24.3901 60.3082 24.1391 60.3162 23.888C60.3242 23.5688 60.3322 23.2539 60.3402 22.9433L58.8761 22.9178C58.7521 22.9178 58.682 22.8922 58.666 22.8412C58.646 22.7901 58.658 22.739 58.702 22.688C58.7461 22.6326 58.8041 22.6007 58.8761 22.5922L60.3522 22.5667L60.4482 21.0603C60.4642 20.8177 60.4822 20.5709 60.5022 20.3198C60.5022 20.1879 60.5062 20.056 60.5142 19.9241C60.5142 19.7283 60.5582 19.5453 60.6463 19.3751C60.7503 19.2262 60.8783 19.1708 61.0303 19.2091C61.1623 19.2559 61.2363 19.3538 61.2523 19.5028C61.2683 19.7453 61.2763 19.99 61.2763 20.2368C61.2763 20.3773 61.2763 20.5177 61.2763 20.6581C61.2763 20.8156 61.2763 20.973 61.2763 21.1305L61.2403 22.5539L63.1785 22.522Z" fill="#DE5242"/>
<path d="M66.2448 26.8753C66.3208 26.7094 66.3728 26.6328 66.4009 26.6455C66.4289 26.6583 66.4349 26.7264 66.4189 26.8498C66.4069 26.969 66.3829 27.1051 66.3468 27.2583C66.2948 27.4924 66.2048 27.7647 66.0768 28.0754C65.9488 28.3818 65.8068 28.6605 65.6508 28.9116C65.4188 29.2605 65.1307 29.5243 64.7867 29.7031C64.4466 29.8776 64.1366 29.9201 63.8566 29.8307C63.5806 29.7414 63.4205 29.4626 63.3765 28.9945C63.3685 28.603 63.4005 28.1732 63.4725 27.7051C63.4965 27.5094 63.5226 27.3179 63.5506 27.1307C63.5506 27.0626 63.5346 27.0115 63.5026 26.9775C63.4705 26.9392 63.4285 26.9243 63.3765 26.9328C63.3405 26.9328 63.3005 26.9328 63.2565 26.9328C63.0365 26.9711 62.8125 26.9668 62.5845 26.92C62.3124 26.8349 62.1544 26.6923 62.1104 26.4923C62.0664 26.2881 62.0704 26.0221 62.1224 25.6944C62.1504 25.4604 62.2324 25.2859 62.3684 25.171C62.5044 25.0519 62.6645 25.0029 62.8485 25.0242C63.1045 25.0497 63.2285 25.154 63.2205 25.337C63.2125 25.52 63.1645 25.7157 63.0765 25.9242C62.9965 26.0987 62.9545 26.2455 62.9505 26.3647C62.9465 26.4796 63.0405 26.52 63.2325 26.486C63.2765 26.4732 63.3245 26.4583 63.3765 26.4413C63.4485 26.4115 63.5306 26.386 63.6226 26.3647C63.7146 26.3391 63.8346 26.3328 63.9826 26.3455C64.1586 26.354 64.2746 26.4413 64.3306 26.6072C64.3906 26.7689 64.4166 26.9732 64.4086 27.22C64.4006 27.4668 64.3786 27.7179 64.3426 27.9732C64.2986 28.2924 64.2766 28.5669 64.2766 28.7967C64.2766 29.0222 64.3386 29.1541 64.4627 29.1924C64.6267 29.2392 64.8707 29.0818 65.1947 28.7201C65.5228 28.3541 65.8728 27.7392 66.2448 26.8753Z" fill="#DE5242"/>
<path d="M67.433 28.7839C67.0809 28.7754 66.7949 28.6073 66.5749 28.2796C66.3548 27.952 66.2168 27.5392 66.1608 27.0413C66.1048 26.5392 66.1508 26.0264 66.2988 25.5029C66.3348 25.3412 66.4329 25.2242 66.5929 25.1519C66.7049 25.1136 66.8209 25.12 66.9409 25.171C67.0609 25.2221 67.1249 25.3093 67.1329 25.4327C67.1329 25.5434 67.1229 25.654 67.1029 25.7647C67.0869 25.8498 67.0749 25.9306 67.0669 26.0072C67.0469 26.3136 67.0529 26.6498 67.0849 27.0158C67.1169 27.3817 67.2069 27.6966 67.3549 27.9605C67.507 28.1647 67.675 28.1903 67.859 28.0371C68.043 27.8796 68.205 27.6371 68.3451 27.3094C68.4531 27.0498 68.5371 26.7923 68.5971 26.537C68.6571 26.2774 68.6971 26.0774 68.7171 25.937C68.7331 25.8817 68.7411 25.8434 68.7411 25.8221C68.7691 25.7115 68.7951 25.5987 68.8191 25.4838C68.8631 25.3349 68.9071 25.1859 68.9511 25.037C69.0311 24.7476 69.2251 24.6263 69.5332 24.6731C69.7172 24.6902 69.8192 24.788 69.8392 24.9668C69.8552 25.2093 69.8592 25.4519 69.8512 25.6944C69.8432 25.8008 69.8392 25.9051 69.8392 26.0072C69.8112 26.437 69.8012 26.8945 69.8092 27.3796C69.8212 27.8605 69.8972 28.2584 70.0372 28.5733C70.0532 28.6116 70.0592 28.669 70.0552 28.7456C70.0512 28.8179 70.0292 28.8903 69.9892 28.9626C69.9492 29.0307 69.8852 29.0733 69.7972 29.0903C69.7092 29.1031 69.5912 29.0626 69.4432 28.969C69.2231 28.8201 69.0811 28.6179 69.0171 28.3626C68.9571 28.103 68.9271 27.852 68.9271 27.6094C68.9191 27.469 68.9111 27.3456 68.9031 27.2392C68.8231 27.7285 68.6411 28.1073 68.3571 28.3754C68.077 28.6392 67.769 28.7754 67.433 28.7839Z" fill="#DE5242"/>
<path d="M74.4177 26.8753C74.4937 26.7094 74.5457 26.6328 74.5737 26.6455C74.6017 26.6583 74.6077 26.7264 74.5917 26.8498C74.5797 26.969 74.5557 27.1051 74.5197 27.2583C74.4677 27.4924 74.3777 27.7647 74.2497 28.0754C74.1217 28.3818 73.9796 28.6605 73.8236 28.9116C73.5916 29.2605 73.3036 29.5243 72.9595 29.7031C72.6195 29.8776 72.3095 29.9201 72.0294 29.8307C71.7534 29.7414 71.5934 29.4626 71.5494 28.9945C71.5414 28.603 71.5734 28.1732 71.6454 27.7051C71.6694 27.5094 71.6954 27.3179 71.7234 27.1307C71.7234 27.0626 71.7074 27.0115 71.6754 26.9775C71.6434 26.9392 71.6014 26.9243 71.5494 26.9328C71.5134 26.9328 71.4734 26.9328 71.4294 26.9328C71.2094 26.9711 70.9853 26.9668 70.7573 26.92C70.4853 26.8349 70.3273 26.6923 70.2833 26.4923C70.2393 26.2881 70.2433 26.0221 70.2953 25.6944C70.3233 25.4604 70.4053 25.2859 70.5413 25.171C70.6773 25.0519 70.8373 25.0029 71.0213 25.0242C71.2774 25.0497 71.4014 25.154 71.3934 25.337C71.3854 25.52 71.3374 25.7157 71.2494 25.9242C71.1693 26.0987 71.1273 26.2455 71.1233 26.3647C71.1193 26.4796 71.2134 26.52 71.4054 26.486C71.4494 26.4732 71.4974 26.4583 71.5494 26.4413C71.6214 26.4115 71.7034 26.386 71.7954 26.3647C71.8874 26.3391 72.0074 26.3328 72.1555 26.3455C72.3315 26.354 72.4475 26.4413 72.5035 26.6072C72.5635 26.7689 72.5895 26.9732 72.5815 27.22C72.5735 27.4668 72.5515 27.7179 72.5155 27.9732C72.4715 28.2924 72.4495 28.5669 72.4495 28.7967C72.4495 29.0222 72.5115 29.1541 72.6355 29.1924C72.7995 29.2392 73.0435 29.0818 73.3676 28.7201C73.6956 28.3541 74.0457 27.7392 74.4177 26.8753Z" fill="#DE5242"/>
<path d="M79.6022 26.8753C79.6822 26.8285 79.7622 26.7945 79.8423 26.7732C79.9223 26.7477 79.9723 26.7498 79.9923 26.7796C80.0163 26.8051 79.9843 26.8753 79.8963 26.9902C79.6122 27.3264 79.2782 27.6328 78.8942 27.9094C78.5141 28.186 78.1261 28.4222 77.73 28.6179C77.414 28.7669 77.08 28.886 76.7279 28.9754C76.3759 29.0648 76.0279 29.0839 75.6838 29.0328C75.3398 28.9818 75.0278 28.8201 74.7477 28.5477C74.4117 28.1903 74.2297 27.7371 74.2017 27.1881C74.1697 26.6349 74.2897 26.1711 74.5617 25.7966C74.9217 25.3668 75.3758 25.0902 75.9238 24.9668C76.4759 24.8434 76.972 24.937 77.412 25.2476C77.624 25.4051 77.71 25.5902 77.67 25.803C77.63 26.0115 77.524 26.2072 77.352 26.3902C77.18 26.5732 76.988 26.7115 76.7759 26.8051C76.4599 26.937 76.1759 26.9647 75.9238 26.8881C75.6758 26.8072 75.4818 26.7009 75.3418 26.5689C75.2418 26.6072 75.1798 26.7562 75.1558 27.0158C75.0918 27.5051 75.2358 27.903 75.5878 28.2094C75.8798 28.4435 76.2479 28.5073 76.6919 28.4009C77.136 28.2945 77.59 28.1073 78.0541 27.8392C78.5221 27.5711 78.9382 27.3158 79.3022 27.0732C79.4142 27.0094 79.5142 26.9434 79.6022 26.8753ZM76.6859 25.6434C76.6339 25.5668 76.5479 25.537 76.4279 25.554C76.3079 25.5668 76.1839 25.6051 76.0559 25.6689C75.9319 25.7327 75.8218 25.8008 75.7258 25.8732C75.6338 25.9413 75.5938 25.9902 75.6058 26.02C75.6058 26.037 75.6158 26.0668 75.6358 26.1093C75.6598 26.1519 75.6938 26.1966 75.7378 26.2434C75.7818 26.2902 75.8398 26.3242 75.9118 26.3455C75.9879 26.3625 76.0839 26.3562 76.1999 26.3264C76.3839 26.2711 76.5119 26.1987 76.5839 26.1093C76.6599 26.02 76.7019 25.9327 76.7099 25.8476C76.7219 25.7583 76.7139 25.6902 76.6859 25.6434Z" fill="#DE5242"/>
</svg>
