<svg width="20" height="20" viewBox="0 0 20 20" fill="none" xmlns="http://www.w3.org/2000/svg">
<path fill-rule="evenodd" clip-rule="evenodd" d="M4.16675 15C4.16675 16.1509 6.77842 17.0834 10.0001 17.0834C13.2217 17.0834 15.8334 16.1509 15.8334 15V5.00002C15.8334 3.84919 13.2217 2.91669 10.0001 2.91669C6.77842 2.91669 4.16675 3.84919 4.16675 5.00002V15Z" stroke="white" stroke-width="1.5" stroke-linecap="round" stroke-linejoin="round"/>
<path d="M15.8334 5C15.8334 6.15083 13.2217 7.08333 10.0001 7.08333C6.77842 7.08333 4.16675 6.15083 4.16675 5" stroke="white" stroke-width="1.5" stroke-linecap="round" stroke-linejoin="round"/>
<path d="M15.8334 11.6667C15.8334 12.8175 13.2217 13.75 10.0001 13.75C6.77842 13.75 4.16675 12.8175 4.16675 11.6667" stroke="white" stroke-width="1.5" stroke-linecap="round" stroke-linejoin="round"/>
<path d="M15.8334 8.33337C15.8334 9.48421 13.2217 10.4167 10.0001 10.4167C6.77842 10.4167 4.16675 9.48421 4.16675 8.33337" stroke="white" stroke-width="1.5" stroke-linecap="round" stroke-linejoin="round"/>
</svg>
