<svg width="20" height="20" viewBox="0 0 20 20" fill="none" xmlns="http://www.w3.org/2000/svg">
<path fill-rule="evenodd" clip-rule="evenodd" d="M16.6667 18.3333H11.6667C10.7458 18.3333 10 17.5875 10 16.6667V11.6667C10 10.7458 10.7458 10 11.6667 10H16.6667C17.5875 10 18.3333 10.7458 18.3333 11.6667V16.6667C18.3333 17.5875 17.5875 18.3333 16.6667 18.3333Z" stroke="white" stroke-width="1.5" stroke-linecap="round" stroke-linejoin="round"/>
<path d="M9.99675 13.5325C9.46341 13.6575 8.90841 13.7334 8.33341 13.7334C7.85925 13.7334 7.39675 13.6867 6.94925 13.6009L4.33341 14.8892C4.33341 13.9975 4.33175 13.1484 4.33258 12.5184C2.71841 11.42 1.66675 9.67835 1.66675 7.70002C1.66675 4.35252 4.66508 1.66669 8.33341 1.66669C12.0017 1.66669 15.0001 4.35252 15.0001 7.70002C15.0001 8.51752 14.8184 9.29419 14.4951 10.0034" stroke="white" stroke-width="1.5" stroke-linecap="round" stroke-linejoin="round"/>
<path d="M8.48091 7.67504C8.56258 7.75671 8.56258 7.88838 8.48091 7.97004C8.39925 8.05171 8.26758 8.05171 8.18591 7.97004C8.10425 7.88838 8.10425 7.75671 8.18591 7.67504C8.26758 7.59421 8.39925 7.59421 8.48091 7.67504" stroke="white" stroke-width="1.5" stroke-linecap="round" stroke-linejoin="round"/>
<path d="M11.4433 7.67504C11.525 7.75671 11.525 7.88838 11.4433 7.97004C11.3617 8.05171 11.23 8.05171 11.1483 7.97004C11.0667 7.88838 11.0667 7.75671 11.1483 7.67504C11.23 7.59421 11.3625 7.59421 11.4433 7.67504" stroke="white" stroke-width="1.5" stroke-linecap="round" stroke-linejoin="round"/>
<path d="M5.51754 7.67504C5.5992 7.75671 5.5992 7.88838 5.51754 7.97004C5.43587 8.05171 5.3042 8.05171 5.22254 7.97004C5.14087 7.88838 5.14087 7.75671 5.22254 7.67504C5.3042 7.59421 5.4367 7.59421 5.51754 7.67504" stroke="white" stroke-width="1.5" stroke-linecap="round" stroke-linejoin="round"/>
<path d="M15.3417 12.9917L12.9917 15.3417" stroke="white" stroke-width="1.5" stroke-linecap="round" stroke-linejoin="round"/>
<path d="M15.3417 15.3417L12.9917 12.9917" stroke="white" stroke-width="1.5" stroke-linecap="round" stroke-linejoin="round"/>
</svg>
