<svg width="20" height="20" viewBox="0 0 20 20" fill="none" xmlns="http://www.w3.org/2000/svg">
<path d="M11.7678 8.23223C12.7441 9.20854 12.7441 10.7915 11.7678 11.7678C10.7915 12.7441 9.20854 12.7441 8.23223 11.7678C7.25592 10.7915 7.25592 9.20854 8.23223 8.23223C9.20854 7.25592 10.7915 7.25592 11.7678 8.23223" stroke="white" stroke-width="1.5" stroke-linecap="round" stroke-linejoin="round"/>
<path fill-rule="evenodd" clip-rule="evenodd" d="M13.4833 15.6042V15.6042C13.9025 16.0233 14.5833 16.0233 15.0025 15.6042L15.6042 15.0025C16.0233 14.5833 16.0233 13.9025 15.6042 13.4833V13.4833C15.2858 13.165 15.1925 12.6875 15.3675 12.2725C15.3858 12.2283 15.4042 12.1842 15.4217 12.1392C15.5742 11.7508 15.9525 11.5008 16.3692 11.5008H16.425C17.0183 11.5008 17.4992 11.02 17.4992 10.4267V9.57583C17.4992 8.9825 17.0183 8.50167 16.425 8.50167H16.3692C15.9525 8.50167 15.5742 8.25083 15.4217 7.86333C15.4042 7.81833 15.3858 7.77417 15.3675 7.73C15.1925 7.315 15.2858 6.8375 15.6042 6.51917V6.51917C16.0233 6.1 16.0233 5.41917 15.6042 5L15.0025 4.39833C14.5833 3.97917 13.9025 3.97917 13.4833 4.39833V4.39833C13.165 4.71667 12.6875 4.81 12.2725 4.635C12.2283 4.61667 12.1842 4.59833 12.1392 4.58083C11.7508 4.42583 11.5 4.04667 11.5 3.63V3.57417C11.5 2.98083 11.0192 2.5 10.4258 2.5H9.575C8.98083 2.5 8.5 2.98083 8.5 3.57417V3.63C8.5 4.04667 8.24917 4.425 7.86167 4.5775C7.81667 4.59583 7.7725 4.61333 7.72833 4.6325C7.31333 4.8075 6.83583 4.71417 6.5175 4.39583V4.39583C6.09833 3.97667 5.4175 3.97667 4.99833 4.39583L4.39583 4.9975C3.97667 5.41667 3.97667 6.0975 4.39583 6.51667V6.51667C4.71417 6.835 4.8075 7.3125 4.6325 7.7275C4.61333 7.7725 4.59583 7.81667 4.57833 7.86167C4.42583 8.24917 4.04667 8.5 3.63 8.5H3.57417C2.98083 8.5 2.5 8.98083 2.5 9.57417V10.425C2.5 11.0192 2.98083 11.5 3.57417 11.5H3.63C4.04667 11.5 4.425 11.7508 4.5775 12.1383C4.595 12.1833 4.61333 12.2275 4.63167 12.2717C4.80667 12.6867 4.71333 13.1642 4.395 13.4825V13.4825C3.97583 13.9017 3.97583 14.5825 4.395 15.0017L4.99667 15.6033C5.41583 16.0225 6.09667 16.0225 6.51583 15.6033V15.6033C6.83417 15.285 7.31167 15.1917 7.72667 15.3667C7.77083 15.385 7.815 15.4033 7.86 15.4208C8.24833 15.5733 8.49833 15.9517 8.49833 16.3683V16.4242C8.49833 17.0175 8.97917 17.4983 9.5725 17.4983H10.4233C11.0167 17.4983 11.4975 17.0175 11.4975 16.4242V16.3683C11.4975 15.9517 11.7483 15.5733 12.1358 15.4208C12.1808 15.4033 12.225 15.385 12.2692 15.3667C12.6867 15.1925 13.1642 15.2858 13.4833 15.6042V15.6042Z" stroke="white" stroke-width="1.5" stroke-linecap="round" stroke-linejoin="round"/>
</svg>
